HIERARCHY
ROOT Hips
{
	OFFSET 0.000000 83.214638 0.000000
	CHANNELS 6 Xposition Yposition Zposition Xrotation Yrotation Zrotation
	JOINT Pelvis
	{
		OFFSET 0.000000 0.000000 0.000000
		CHANNELS 3 Xrotation Yrotation Zrotation
		JOINT LeftUpLeg
		{
			OFFSET 8.479700 -4.795502 -0.379100
			CHANNELS 3 Xrotation Yrotation Zrotation
			JOINT LeftLeg
			{
				OFFSET 0.024144 -32.555107 0.112900
				CHANNELS 3 Xrotation Yrotation Zrotation
				JOINT LeftFoot
				{
					OFFSET -0.024144 -32.638630 -3.012600
					CHANNELS 3 Xrotation Yrotation Zrotation
					JOINT LeftToeBase
					{
						OFFSET 0.970200 -13.225400 11.864200
						CHANNELS 3 Xrotation Yrotation Zrotation
						End Site
						{
							OFFSET 0.000000 12.319262 0.000000
						}
					}
					JOINT LFootTongue
					{
						OFFSET 1.142400 -1.059800 6.665200
						CHANNELS 3 Xrotation Yrotation Zrotation
						End Site
						{
							OFFSET 0.000000 12.319262 0.000000
						}
					}
				}
				JOINT LeftPantLeg
				{
					OFFSET 0.918482 -16.533964 -2.284700
					CHANNELS 3 Xrotation Yrotation Zrotation
					End Site
					{
						OFFSET 0.350399 24.744368 0.000000
					}
				}
			}
		}
		JOINT RightUpLeg
		{
			OFFSET -8.479700 -4.795502 -0.379100
			CHANNELS 3 Xrotation Yrotation Zrotation
			JOINT RightLeg
			{
				OFFSET -0.023144 -32.555092 0.112900
				CHANNELS 3 Xrotation Yrotation Zrotation
				JOINT RightFoot
				{
					OFFSET 0.023144 -32.638641 -3.012700
					CHANNELS 3 Xrotation Yrotation Zrotation
					JOINT RightToeBase
					{
						OFFSET -0.970200 -13.225400 11.864200
						CHANNELS 3 Xrotation Yrotation Zrotation
						End Site
						{
							OFFSET 0.000000 12.319244 0.000000
						}
					}
					JOINT RFootTongue
					{
						OFFSET -1.142200 -1.059800 6.665200
						CHANNELS 3 Xrotation Yrotation Zrotation
						End Site
						{
							OFFSET 0.000000 12.319243 0.000000
						}
					}
				}
				JOINT RightPantLeg
				{
					OFFSET -0.919482 -16.533978 -2.284800
					CHANNELS 3 Xrotation Yrotation Zrotation
					End Site
					{
						OFFSET -0.350400 24.744419 0.000000
					}
				}
			}
		}
	}
	JOINT Spine
	{
		OFFSET 0.000000 7.722000 1.166200
		CHANNELS 3 Xrotation Yrotation Zrotation
		JOINT Spine1
		{
			OFFSET 0.000000 12.024101 0.248800
			CHANNELS 3 Xrotation Yrotation Zrotation
			JOINT Spine2
			{
				OFFSET 0.000000 11.502998 -0.491200
				CHANNELS 3 Xrotation Yrotation Zrotation
				JOINT Neck
				{
					OFFSET 0.000000 18.430702 -3.123100
					CHANNELS 3 Xrotation Yrotation Zrotation
					JOINT Head
					{
						OFFSET 0.000000 9.051102 1.034000
						CHANNELS 3 Xrotation Yrotation Zrotation
						JOINT HairB
						{
							OFFSET 0.208400 24.786102 24.822300
							CHANNELS 3 Xrotation Yrotation Zrotation
							End Site
							{
								OFFSET 0.000000 32.263779 0.000000
							}
						}
						JOINT HairA
						{
							OFFSET -7.081100 24.428299 23.196600
							CHANNELS 3 Xrotation Yrotation Zrotation
							End Site
							{
								OFFSET 0.000000 32.263779 0.000000
							}
						}
						JOINT Hat
						{
							OFFSET 16.728800 15.048294 -15.439601
							CHANNELS 3 Xrotation Yrotation Zrotation
							End Site
							{
								OFFSET 0.000000 32.263779 0.000000
							}
						}
					}
				}
				JOINT LeftShoulder
				{
					OFFSET 6.197800 13.665199 -4.064700
					CHANNELS 3 Xrotation Yrotation Zrotation
					JOINT LeftArm
					{
						OFFSET 7.778100 -0.187103 -1.709300
						CHANNELS 3 Xrotation Yrotation Zrotation
						JOINT LeftForeArm
						{
							OFFSET 22.049376 0.000000 0.000000
							CHANNELS 3 Xrotation Yrotation Zrotation
							JOINT LeftHand
							{
								OFFSET 23.009392 0.000000 0.000000
								CHANNELS 3 Xrotation Yrotation Zrotation
								JOINT LeftHandThumb1
								{
									OFFSET 3.507191 -2.063065 3.133727
									CHANNELS 3 Xrotation Yrotation Zrotation
									JOINT LeftHandThumb2
									{
										OFFSET 3.101337 -1.790558 1.790558
										CHANNELS 3 Xrotation Yrotation Zrotation
										JOINT LeftHandThumb3
										{
											OFFSET 3.058640 -1.765907 1.765906
											CHANNELS 3 Xrotation Yrotation Zrotation
											End Site
											{
												OFFSET -0.415260 3.926476 -0.049563
											}
										}
									}
								}
								JOINT LeftHandIndex1
								{
									OFFSET 11.334419 -0.901459 3.706815
									CHANNELS 3 Xrotation Yrotation Zrotation
									JOINT LeftHandIndex2
									{
										OFFSET 3.283112 0.000000 0.000000
										CHANNELS 3 Xrotation Yrotation Zrotation
										JOINT LeftHandIndex3
										{
											OFFSET 3.323853 0.000000 0.000000
											CHANNELS 3 Xrotation Yrotation Zrotation
											End Site
											{
												OFFSET -1.135597 3.097809 0.402452
											}
										}
									}
								}
								JOINT LeftHandMiddle1
								{
									OFFSET 11.335861 0.000000 0.000000
									CHANNELS 3 Xrotation Yrotation Zrotation
									JOINT LeftHandMiddle2
									{
										OFFSET 3.410492 0.000000 0.000000
										CHANNELS 3 Xrotation Yrotation Zrotation
										JOINT LeftHandMiddle3
										{
											OFFSET 3.312172 0.000000 0.000000
											CHANNELS 3 Xrotation Yrotation Zrotation
											End Site
											{
												OFFSET -1.150200 3.080154 0.400270
											}
										}
									}
								}
								JOINT LeftHandRing1
								{
									OFFSET 11.514786 -0.013176 -3.003090
									CHANNELS 3 Xrotation Yrotation Zrotation
									JOINT LeftHandRing2
									{
										OFFSET 3.053307 0.000000 0.000000
										CHANNELS 3 Xrotation Yrotation Zrotation
										JOINT LeftHandRing3
										{
											OFFSET 3.295807 0.000000 0.000000
											CHANNELS 3 Xrotation Yrotation Zrotation
											End Site
											{
												OFFSET -1.281006 3.013344 0.375733
											}
										}
									}
								}
								JOINT LeftHandPinky1
								{
									OFFSET 10.518692 -0.960396 -5.730441
									CHANNELS 3 Xrotation Yrotation Zrotation
									JOINT LeftHandPinky2
									{
										OFFSET 2.861649 0.000000 0.000000
										CHANNELS 3 Xrotation Yrotation Zrotation
										JOINT LeftHandPinky3
										{
											OFFSET 2.863380 0.000000 0.000000
											CHANNELS 3 Xrotation Yrotation Zrotation
											End Site
											{
												OFFSET -0.843597 2.711159 0.369971
											}
										}
									}
								}
							}
							JOINT LSleeve
							{
								OFFSET 6.676277 -0.344902 -1.011730
								CHANNELS 3 Xrotation Yrotation Zrotation
								End Site
								{
									OFFSET 0.000000 14.885353 0.000000
								}
							}
						}
					}
				}
				JOINT RightShoulder
				{
					OFFSET -6.197800 13.665199 -4.064700
					CHANNELS 3 Xrotation Yrotation Zrotation
					JOINT RightArm
					{
						OFFSET -7.778100 -0.187103 -1.709300
						CHANNELS 3 Xrotation Yrotation Zrotation
						JOINT RightForeArm
						{
							OFFSET -22.049376 0.000000 0.000000
							CHANNELS 3 Xrotation Yrotation Zrotation
							JOINT RightHand
							{
								OFFSET -23.009392 0.000000 0.000000
								CHANNELS 3 Xrotation Yrotation Zrotation
								JOINT RightHandThumb1
								{
									OFFSET -3.507191 -2.063065 3.133727
									CHANNELS 3 Xrotation Yrotation Zrotation
									JOINT RightHandThumb2
									{
										OFFSET -3.101337 -1.790558 1.790558
										CHANNELS 3 Xrotation Yrotation Zrotation
										JOINT RightHandThumb3
										{
											OFFSET -3.058640 -1.765907 1.765906
											CHANNELS 3 Xrotation Yrotation Zrotation
											End Site
											{
												OFFSET 0.415260 3.926476 -0.049563
											}
										}
									}
								}
								JOINT RightHandIndex1
								{
									OFFSET -11.334419 -0.901459 3.706815
									CHANNELS 3 Xrotation Yrotation Zrotation
									JOINT RightHandIndex2
									{
										OFFSET -3.283112 0.000000 0.000000
										CHANNELS 3 Xrotation Yrotation Zrotation
										JOINT RightHandIndex3
										{
											OFFSET -3.323853 0.000000 0.000000
											CHANNELS 3 Xrotation Yrotation Zrotation
											End Site
											{
												OFFSET 1.135597 3.097809 0.402452
											}
										}
									}
								}
								JOINT RightHandMiddle1
								{
									OFFSET -11.335861 0.000000 0.000000
									CHANNELS 3 Xrotation Yrotation Zrotation
									JOINT RightHandMiddle2
									{
										OFFSET -3.410492 0.000000 0.000000
										CHANNELS 3 Xrotation Yrotation Zrotation
										JOINT RightHandMiddle3
										{
											OFFSET -3.312172 0.000000 0.000000
											CHANNELS 3 Xrotation Yrotation Zrotation
											End Site
											{
												OFFSET 1.150200 3.080154 0.400270
											}
										}
									}
								}
								JOINT RightHandRing1
								{
									OFFSET -11.514786 -0.013176 -3.003090
									CHANNELS 3 Xrotation Yrotation Zrotation
									JOINT RightHandRing2
									{
										OFFSET -3.053307 0.000000 0.000000
										CHANNELS 3 Xrotation Yrotation Zrotation
										JOINT RightHandRing3
										{
											OFFSET -3.295807 0.000000 0.000000
											CHANNELS 3 Xrotation Yrotation Zrotation
											End Site
											{
												OFFSET 1.281006 3.013344 0.375733
											}
										}
									}
								}
								JOINT RightHandPinky1
								{
									OFFSET -10.518692 -0.960396 -5.730441
									CHANNELS 3 Xrotation Yrotation Zrotation
									JOINT RightHandPinky2
									{
										OFFSET -2.861649 0.000000 0.000000
										CHANNELS 3 Xrotation Yrotation Zrotation
										JOINT RightHandPinky3
										{
											OFFSET -2.863380 0.000000 0.000000
											CHANNELS 3 Xrotation Yrotation Zrotation
											End Site
											{
												OFFSET 0.843597 2.711159 0.369971
											}
										}
									}
								}
							}
							JOINT RSleeve
							{
								OFFSET -6.676277 -0.344902 -1.011730
								CHANNELS 3 Xrotation Yrotation Zrotation
								End Site
								{
									OFFSET 0.000000 14.885353 0.000000
								}
							}
						}
					}
				}
				JOINT Backpack
				{
					OFFSET 0.000000 -2.471497 36.677502
					CHANNELS 3 Xrotation Yrotation Zrotation
					End Site
					{
						OFFSET 0.000000 20.427315 0.000000
					}
				}
				JOINT Hood
				{
					OFFSET 0.000000 18.754097 -10.431000
					CHANNELS 3 Xrotation Yrotation Zrotation
					JOINT Hood1
					{
						OFFSET 0.000000 -5.011002 -7.685901
						CHANNELS 3 Xrotation Yrotation Zrotation
						End Site
						{
							OFFSET 0.000000 9.175140 0.000000
						}
					}
				}
				JOINT LHoodieString
				{
					OFFSET 5.250500 16.397697 3.089900
					CHANNELS 3 Xrotation Yrotation Zrotation
					JOINT LHoodieString1
					{
						OFFSET 0.257700 -6.364304 3.694600
						CHANNELS 3 Xrotation Yrotation Zrotation
						JOINT LHoodieString2
						{
							OFFSET 0.000000 -9.643799 2.679100
							CHANNELS 3 Xrotation Yrotation Zrotation
							End Site
							{
								OFFSET 0.000000 10.009018 0.000000
							}
						}
					}
				}
				JOINT RHoodieString
				{
					OFFSET -5.250500 16.397697 3.089900
					CHANNELS 3 Xrotation Yrotation Zrotation
					JOINT RHoodieString1
					{
						OFFSET -0.257700 -6.364304 3.694600
						CHANNELS 3 Xrotation Yrotation Zrotation
						JOINT RHoodieString2
						{
							OFFSET 0.000000 -9.643799 2.679100
							CHANNELS 3 Xrotation Yrotation Zrotation
							End Site
							{
								OFFSET 0.000000 10.009018 0.000000
							}
						}
					}
				}
			}
			JOINT LBackpack_Strap
			{
				OFFSET 15.223200 -7.719803 -6.610900
				CHANNELS 3 Xrotation Yrotation Zrotation
				End Site
				{
					OFFSET 0.000000 16.040596 0.000000
				}
			}
			JOINT RBackpack_Strap
			{
				OFFSET -15.223000 -7.719803 -6.610900
				CHANNELS 3 Xrotation Yrotation Zrotation
				End Site
				{
					OFFSET 0.000000 16.040596 0.000000
				}
			}
		}
	}
	JOINT BoyFacialAnim_Joint
	{
		OFFSET 1.000000 -82.208099 -1.550900
		CHANNELS 3 Xrotation Yrotation Zrotation
		End Site
		{
			OFFSET 0.000000 30.012791 0.000000
		}
	}
}
MOTION
Frames: 5
Frame Time: 0.033333
-0.499147 65.744720 0.743627 9.324229 -4.197550 17.048758 0.000001 0.000000 0.000000 -50.478697 -0.240023 18.992751 78.726092 -9.721332 4.268675 -1.308738 -0.860806 -11.882235 0.000001 -0.000001 -0.000001 0.000001 -0.000001 -0.000001 -0.000003 0.000001 0.000002 -27.814161 -3.863792 22.959597 48.476909 -5.262009 -1.659155 -22.314556 11.247374 -32.632185 0.000000 0.000001 -0.000000 0.000000 0.000001 -0.000000 -0.000000 -0.000002 -0.000003 3.434228 -1.374558 0.674713 2.449955 -19.644469 -2.929034 1.959851 -9.584734 -0.392678 6.289642 5.421244 -4.908946 -11.393623 17.889727 5.359087 -0.000000 0.000001 -0.000001 -0.000000 0.000001 -0.000001 -0.000000 0.000001 -0.000001 3.544247 4.756012 -11.623021 -54.038848 -33.116452 -50.381576 -0.000162 -81.882350 -0.000166 -58.768368 25.992611 38.870316 -14.557462 10.837959 12.229986 0.749544 -4.257894 13.305500 0.000001 0.000002 -0.000001 -0.809536 2.578169 -31.496434 3.095903 5.163792 -61.866972 -0.000000 -0.000000 -0.000000 -2.430841 1.729222 -41.460932 2.952362 5.084725 -60.259931 0.000000 -0.000001 0.000002 -6.054122 -0.166584 -49.857584 3.046248 5.137035 -61.313946 0.000001 -0.000001 0.000001 -8.298323 -6.522656 -38.520143 2.848793 5.024391 -59.084401 -0.000000 0.000000 -0.000002 0.000002 -0.000001 0.000000 -15.953823 17.152767 -0.593582 -83.246865 49.221973 101.951700 0.000014 45.539846 -0.000018 -51.073808 -13.368222 -40.227919 8.377137 -4.904154 11.022007 21.620202 -18.183878 -18.379216 -0.000001 0.000002 0.000001 0.558928 -4.406594 25.436661 1.653041 -3.560358 49.799107 -0.000000 0.000000 0.000002 10.969799 -12.875614 52.800832 6.387600 -4.324412 111.833672 0.000001 -0.000002 0.000001 3.705078 -7.151328 57.622454 5.328208 -4.608691 98.293450 0.000002 0.000001 0.000002 0.474814 -5.172980 58.987679 3.194329 -4.421942 71.674161 -0.000000 -0.000000 0.000000 -0.000001 0.000001 0.000002 0.000003 0.000000 0.000001 0.000003 0.000000 0.000001 0.000003 0.000000 0.000001 0.000003 0.000000 0.000001 0.000003 0.000000 0.000001 0.000001 0.000000 0.000001 0.000003 0.000000 0.000001 0.000003 0.000000 0.000001 0.000001 0.000000 0.000001 0.000001 -0.000000 0.000000 0.000001 -0.000000 0.000000 0.000001 0.000000 0.000000 
-1.336264 66.991852 10.155257 9.645758 -4.247890 17.742762 0.000002 -0.000000 0.000001 -55.394747 -1.403109 14.147861 62.907265 -8.297845 5.228828 -7.979665 0.295440 -10.498845 -0.000001 0.000000 -0.000001 -0.000001 0.000000 -0.000000 0.000000 0.000000 0.000000 -14.893707 -2.305201 22.022285 38.536153 -4.175708 -2.566274 -19.332847 13.528660 -36.557505 0.000001 0.000001 -0.000000 0.000001 0.000001 -0.000000 -0.000000 0.000002 -0.000002 2.478103 -0.852231 0.187118 1.693711 -19.343736 -3.309543 1.282752 -9.261630 -0.762787 7.179478 5.068915 -4.541986 -10.305833 16.264912 6.468798 -0.000001 0.000002 -0.000000 -0.000001 0.000002 -0.000000 -0.000001 0.000002 -0.000000 3.219037 4.039467 -10.591436 -52.824307 -34.210201 -49.935636 -0.000134 -80.705795 -0.000135 -60.471947 29.458719 40.338903 -14.557467 10.837959 12.229987 0.749542 -4.257894 13.305500 -0.000000 0.000001 0.000001 -0.809538 2.578170 -31.496430 3.095904 5.163791 -61.866966 -0.000002 0.000000 -0.000000 -2.430841 1.729222 -41.460922 2.952362 5.084724 -60.259931 0.000001 -0.000001 0.000002 -6.054123 -0.166584 -49.857574 3.046246 5.137034 -61.313939 -0.000000 -0.000000 -0.000004 -8.298325 -6.522656 -38.520146 2.848794 5.024389 -59.084387 -0.000000 0.000001 -0.000002 0.000001 -0.000000 -0.000001 -16.070091 16.724551 -0.203597 -80.761550 49.173421 100.461516 0.000018 45.398031 -0.000001 -55.571543 -14.088894 -41.002807 8.377138 -4.904156 11.022004 21.620201 -18.183878 -18.379214 -0.000001 0.000002 0.000001 0.558927 -4.406593 25.436654 1.653039 -3.560360 49.799107 -0.000001 -0.000001 0.000007 10.969799 -12.875615 52.800832 6.387601 -4.324409 111.833672 0.000002 0.000001 0.000000 3.705077 -7.151329 57.622454 5.328207 -4.608688 98.293450 0.000001 0.000000 0.000002 0.474812 -5.172979 58.987686 3.194327 -4.421940 71.674161 -0.000001 -0.000001 0.000002 0.000000 -0.000000 0.000002 0.000001 -0.000002 0.000000 0.000001 -0.000002 0.000000 0.000001 -0.000002 0.000000 0.000001 -0.000002 0.000000 0.000001 -0.000002 0.000000 -0.000000 0.000001 -0.000000 0.000001 -0.000002 0.000000 0.000001 -0.000002 0.000000 -0.000000 0.000001 -0.000000 0.000001 0.000001 -0.000000 0.000001 0.000001 -0.000000 0.000002 -0.000000 0.000001 
-2.241440 68.331436 19.897102 9.243286 -6.100070 19.033796 -0.000000 -0.000000 -0.000001 -54.979031 -1.063044 10.195656 44.020764 -6.798496 5.266943 -13.914696 1.448554 -11.515785 -0.000001 -0.000001 0.000001 -0.000001 -0.000001 0.000001 -0.000001 0.000000 0.000002 -2.781230 -2.255702 20.073236 30.984071 -4.118182 -3.796056 -10.931554 9.989631 -38.441377 0.000000 0.000000 0.000000 0.000000 0.000000 0.000000 0.000002 0.000001 -0.000000 1.923865 0.417486 -0.459684 1.263913 -18.731169 -3.701490 0.932187 -8.630519 -1.135341 8.131108 4.756659 -4.425923 -9.274036 15.175473 6.425400 -0.000000 0.000000 -0.000001 -0.000000 0.000000 -0.000001 -0.000000 0.000000 -0.000001 3.511714 3.431695 -11.340904 -51.012962 -36.449171 -47.589422 -0.000061 -79.754131 -0.000067 -62.451548 32.119439 41.455970 -14.557462 10.837955 12.229989 0.749545 -4.257895 13.305502 0.000000 0.000001 -0.000001 -0.809535 2.578169 -31.496434 3.095905 5.163791 -61.866972 -0.000000 0.000001 -0.000003 -2.430841 1.729222 -41.460932 2.952360 5.084727 -60.259931 -0.000000 -0.000001 0.000000 -6.054122 -0.166583 -49.857587 3.046248 5.137035 -61.313939 0.000000 0.000000 -0.000002 -8.298325 -6.522656 -38.520146 2.848795 5.024390 -59.084401 0.000001 0.000000 0.000003 -0.000002 0.000001 0.000001 -16.323269 15.840228 0.791301 -79.047849 50.043174 100.217747 0.000009 45.044613 -0.000005 -59.484295 -14.221729 -41.733313 8.377137 -4.904154 11.022007 21.620202 -18.183879 -18.379209 -0.000002 -0.000000 -0.000002 0.558926 -4.406592 25.436659 1.653038 -3.560359 49.799111 0.000000 0.000001 0.000000 10.969799 -12.875613 52.800832 6.387601 -4.324410 111.833672 0.000002 0.000004 0.000001 3.705074 -7.151329 57.622447 5.328210 -4.608689 98.293444 0.000001 -0.000002 0.000000 0.474813 -5.172978 58.987679 3.194329 -4.421941 71.674168 -0.000000 0.000000 -0.000001 0.000000 0.000001 -0.000003 0.000002 0.000003 -0.000002 0.000002 0.000003 -0.000002 0.000002 0.000003 -0.000002 0.000002 0.000003 -0.000002 0.000002 0.000003 -0.000003 0.000002 0.000000 0.000000 0.000002 0.000003 -0.000002 0.000002 0.000003 -0.000003 0.000002 0.000000 0.000000 0.000001 0.000001 0.000000 0.000001 0.000001 0.000000 -0.000000 -0.000000 -0.000001 
-3.418118 69.607086 29.678204 9.118090 -8.168149 19.280234 -0.000000 0.000000 -0.000001 -46.976576 0.608426 8.821862 16.204055 -2.753851 3.673518 -16.182900 2.411110 -14.432089 0.000001 0.000002 -0.000000 0.000001 0.000002 -0.000000 -0.000002 0.000000 0.000001 0.337194 -4.128665 17.345291 33.511685 -5.624668 -4.871389 2.524579 1.907170 -32.591166 -0.000000 -0.000000 0.000000 -0.000000 -0.000000 0.000000 -0.000002 -0.000002 -0.000003 1.170190 1.583298 -0.093682 0.799072 -18.218700 -3.706400 0.474758 -8.121901 -1.133860 9.217155 4.600554 -4.367426 -8.175438 15.017370 5.445371 0.000001 0.000000 -0.000001 0.000001 0.000000 -0.000001 0.000001 0.000000 -0.000001 4.225572 3.261271 -13.426079 -49.086671 -38.425504 -45.326536 0.000069 -79.771145 0.000084 -62.710726 34.384391 42.882988 -14.557467 10.837956 12.229986 0.749543 -4.257896 13.305500 0.000000 -0.000001 -0.000002 -0.809537 2.578171 -31.496427 3.095905 5.163789 -61.866972 -0.000000 0.000000 -0.000000 -2.430843 1.729223 -41.460932 2.952359 5.084726 -60.259931 -0.000001 -0.000001 0.000002 -6.054122 -0.166584 -49.857581 3.046248 5.137036 -61.313946 0.000001 0.000001 -0.000004 -8.298324 -6.522653 -38.520139 2.848794 5.024390 -59.084394 0.000001 0.000000 -0.000000 0.000002 0.000004 0.000003 -16.529509 14.632753 1.186874 -77.617266 50.218788 101.279322 0.000037 44.801277 -0.000023 -61.679641 -13.625577 -40.955645 8.377138 -4.904156 11.022009 21.620202 -18.183876 -18.379211 0.000000 0.000002 0.000001 0.558928 -4.406593 25.436659 1.653038 -3.560358 49.799111 -0.000000 0.000001 0.000002 10.969801 -12.875612 52.800835 6.387600 -4.324410 111.833672 0.000001 0.000000 0.000001 3.705080 -7.151328 57.622461 5.328207 -4.608689 98.293450 0.000001 -0.000001 -0.000005 0.474814 -5.172978 58.987686 3.194330 -4.421940 71.674161 -0.000001 -0.000001 -0.000002 0.000000 0.000001 -0.000000 0.000002 -0.000001 -0.000001 0.000002 -0.000001 -0.000001 0.000002 -0.000001 -0.000001 0.000002 -0.000001 -0.000001 0.000002 -0.000001 -0.000001 0.000001 -0.000002 0.000001 0.000002 -0.000001 -0.000001 0.000002 -0.000001 -0.000001 0.000001 -0.000002 0.000001 0.000001 0.000000 0.000000 0.000001 0.000000 0.000000 -0.000000 0.000000 -0.000001 
-4.404881 70.231506 39.268120 10.116495 -11.305174 15.626860 0.000000 -0.000000 -0.000001 -46.521252 0.952988 11.015499 7.947649 -0.370181 0.470047 -16.148720 1.863188 -10.115908 -0.000001 -0.000001 -0.000001 -0.000001 -0.000001 -0.000000 0.000003 0.000001 -0.000001 -2.776264 -6.304231 16.909310 43.208436 0.381940 -4.797318 18.285262 -1.840228 -22.509054 0.000000 -0.000001 -0.000000 0.000000 -0.000001 -0.000000 -0.000000 -0.000002 -0.000001 0.271115 4.163481 4.617805 0.450529 -18.175120 -3.158116 0.035246 -8.084857 -0.610192 10.009979 4.527919 -5.034485 -8.258618 14.330473 5.337432 0.000000 -0.000001 -0.000000 0.000000 -0.000001 -0.000000 0.000000 -0.000001 -0.000000 4.793872 2.821889 -15.094791 -48.765662 -37.970415 -45.449247 -0.000044 -81.102575 -0.000061 -60.769942 36.273028 44.050048 -14.557464 10.837958 12.229987 0.749545 -4.257893 13.305502 0.000000 0.000001 -0.000001 -0.809540 2.578168 -31.496430 3.095904 5.163791 -61.866972 0.000000 0.000000 -0.000002 -2.430845 1.729219 -41.460928 2.952363 5.084724 -60.259925 0.000001 -0.000002 -0.000000 -6.054124 -0.166586 -49.857584 3.046247 5.137034 -61.313939 -0.000000 0.000001 -0.000007 -8.298327 -6.522660 -38.520139 2.848794 5.024390 -59.084394 0.000000 0.000000 -0.000000 -0.000001 0.000001 -0.000001 -16.639546 13.558743 0.923722 -76.604431 49.830820 102.303673 -0.000022 45.517552 0.000012 -61.760654 -13.330922 -39.816748 8.377136 -4.904155 11.022006 21.620202 -18.183876 -18.379211 -0.000000 -0.000000 0.000003 0.558928 -4.406594 25.436656 1.653041 -3.560360 49.799111 0.000000 0.000001 0.000002 10.969799 -12.875611 52.800825 6.387603 -4.324413 111.833672 -0.000000 0.000002 -0.000002 3.705077 -7.151327 57.622454 5.328209 -4.608692 98.293457 0.000001 0.000000 0.000004 0.474812 -5.172979 58.987679 3.194327 -4.421943 71.674168 0.000000 -0.000001 -0.000000 -0.000004 0.000001 0.000000 0.000002 0.000001 -0.000001 0.000002 0.000001 -0.000001 0.000002 0.000001 -0.000001 0.000002 0.000001 -0.000001 0.000002 0.000001 -0.000001 0.000002 -0.000002 0.000001 0.000002 0.000001 -0.000001 0.000002 0.000001 -0.000001 0.000002 -0.000002 0.000001 0.000001 0.000003 -0.000001 0.000001 0.000003 -0.000001 0.000000 -0.000000 -0.000001 
